<svg width="54" height="42" viewBox="0 0 54 42" fill="none" xmlns="http://www.w3.org/2000/svg">
<path d="M10.1344 20.5369C4.08402 20.5369 0 16.3678 0 10.1912C0 4.63237 4.68909 0 11.042 0C18 0 23.1429 5.55881 23.1429 14.0515C23.1429 33.353 8.92439 41.0737 0 42V33.5072C6.05043 32.4263 12.8571 26.4043 13.1596 19.7648C12.8571 19.9191 11.6471 20.5369 10.1344 20.5369Z" fill="#132651" fill-opacity="0.15"/>
<path d="M40.9914 20.5369C34.9411 20.5369 30.8571 16.3678 30.8571 10.1912C30.8571 4.63237 35.5463 0 41.899 0C48.8573 0 54 5.55881 54 14.0515C54 33.353 39.7814 41.0737 30.8571 42V33.5072C36.9075 32.4263 43.7142 26.4043 44.0169 19.7648C43.7142 19.9191 42.5042 20.5369 40.9914 20.5369Z" fill="#132651" fill-opacity="0.15"/>
</svg>
